<svg width="392" height="167" viewBox="0 0 392 167" fill="none" xmlns="http://www.w3.org/2000/svg">
<path d="M116.15 98.5466L118.384 98.9495C124.278 100.012 130.267 100.547 136.28 100.547L389.235 100.547" stroke="#675628" stroke-width="6"/>
<path d="M389.235 118C386.711 117.927 153.865 117.994 133.426 118C132.364 118 131.466 117.983 130.405 117.95L100.304 117L85.8627 115.481C74.0534 114.239 63.6066 107.327 57.8593 96.9523V96.9523C49.8688 82.5284 52.5799 64.5049 64.4697 53.0054L68.611 49" stroke="#79652E" stroke-width="6"/>
<path d="M389.763 126.364C387.124 126.288 129.924 126.356 102.191 126.364C100.481 126.364 98.9218 126.298 97.2167 126.166L88.1664 125.465C72.2735 124.234 58.0131 115.308 49.9808 101.564V101.564C40.9575 86.1235 41.1466 66.9513 50.4734 51.631L53.2927 47.0001" stroke="#675628" stroke-width="6"/>
<path d="M389.495 134.732C386.91 134.658 148.545 135.281 98.3645 135.413C92.1488 135.43 86.1214 134.609 80.1301 132.975L73.5195 131.171C58.0159 126.941 45.194 116.077 38.4838 101.485V101.485C32.7255 88.9634 31.9388 74.7081 36.2824 61.5953L41.232 46.6529" stroke="#AF944D" stroke-width="6"/>
<path d="M1 12C1.62715 12 51.904 17.0249 95.2717 21.3709C130.523 24.9036 157.351 54.5718 157.351 90V90" stroke="#79652E" stroke-width="6"/>
<path d="M1 22C1.32919 22 51.8702 27.4612 92.8977 31.9003C122.558 35.1095 145.319 59.6811 146.258 89.5V89.5" stroke="#89784C" stroke-width="6"/>
<path d="M1 3C2.49665 3 51.6468 7.4286 96.2226 11.4732C136.838 15.1584 167.915 49.2175 167.915 90V90" stroke="#AF944D" stroke-width="6"/>
<path d="M87.0984 52C87.3502 52.2384 85.7415 52.7892 83.145 53.4899C68.8013 57.361 59.6946 71.5852 63.543 85.9746V85.9746C65.7272 94.1414 71.7431 100.762 79.6712 103.725L82.1404 104.647C85.419 105.872 88.8876 106.5 92.3805 106.5V106.5" stroke="#89784C" stroke-width="6"/>
<path d="M91.8524 106.5L127.242 108.867L389.235 108.867" stroke="#89784C" stroke-width="6"/>
<path d="M122.489 89.9999L124.723 90.4027C130.616 91.4653 136.606 91.9999 142.618 91.9999L388.707 91.9999" stroke="#79652E" stroke-width="6"/>
<path d="M1 31C1.34776 31 55.4197 37.3639 95.6022 42.0987C119.387 44.9014 134.461 66.0506 134.459 90V90" stroke="#79652E" stroke-width="6"/>
<path d="M1.00006 41.3508C1.41534 41.3505 64.2433 49.0168 95.4386 52.8264C106.037 54.1207 115.145 61.0567 119.232 70.9365L119.868 72.4733C121.608 76.6816 122.105 81.2889 121.297 85.7451V85.7451C119.404 96.1893 110.747 104.013 100.144 104.862L86.5945 105.947" stroke="#89784C" stroke-width="6"/>
</svg>
