<svg width="392" height="167" fill="none" xmlns="http://www.w3.org/2000/svg"><path d="m116.15 98.547 2.234.403a100.873 100.873 0 0 0 17.896 1.597h252.955" stroke="#675628" stroke-width="6"/><path d="M389.235 118c-2.524-.073-235.37-.006-255.809 0-1.062 0-1.96-.017-3.021-.05l-30.101-.95-14.441-1.519a36.342 36.342 0 0 1-28.004-18.529c-7.99-14.424-5.28-32.447 6.61-43.947L68.612 49" stroke="#79652E" stroke-width="6"/><path d="M389.763 126.364c-2.639-.076-259.839-.008-287.572 0-1.71 0-3.27-.066-4.974-.198l-9.05-.701a48.549 48.549 0 0 1-38.186-23.901c-9.023-15.44-8.834-34.613.492-49.933l2.82-4.63" stroke="#675628" stroke-width="6"/><path d="M389.495 134.732c-2.585-.074-240.95.549-291.13.681-6.216.017-12.244-.804-18.235-2.438l-6.61-1.804a54.27 54.27 0 0 1-35.036-29.686 54.472 54.472 0 0 1-2.202-39.89l4.95-14.942" stroke="#AF944D" stroke-width="6"/><path d="M1 12c.627 0 50.904 5.025 94.272 9.37C130.523 24.905 157.35 54.573 157.35 90" stroke="#79652E" stroke-width="6"/><path d="M1 22c.33 0 50.87 5.461 91.898 9.9 29.66 3.21 52.421 27.781 53.36 57.6" stroke="#89784C" stroke-width="6"/><path d="M1 3c1.497 0 50.647 4.429 95.223 8.473 40.615 3.685 71.692 37.745 71.692 78.527" stroke="#AF944D" stroke-width="6"/><path d="M87.098 52c.252.238-1.356.79-3.953 1.49-14.344 3.871-23.45 18.095-19.602 32.485a26.19 26.19 0 0 0 16.128 17.75l2.47.922a29.26 29.26 0 0 0 10.24 1.853m-.529 0 35.39 2.367h261.993" stroke="#89784C" stroke-width="6"/><path d="m122.489 90 2.234.403A100.852 100.852 0 0 0 142.618 92h246.089M1 31c.348 0 54.42 6.364 94.602 11.099C119.387 44.9 134.461 66.05 134.46 90" stroke="#79652E" stroke-width="6"/><path d="M1 41.35c.415 0 63.243 7.667 94.439 11.476 10.598 1.295 19.706 8.23 23.793 18.11l.636 1.537a23.682 23.682 0 0 1 1.429 13.272c-1.893 10.444-10.55 18.268-21.153 19.117l-13.55 1.085" stroke="#89784C" stroke-width="6"/></svg>